<mxfile host="Electron" modified="2024-06-24T07:43:16.133Z" agent="Mozilla/5.0 (Windows NT 10.0; Win64; x64) AppleWebKit/537.36 (KHTML, like Gecko) draw.io/24.6.1 Chrome/124.0.6367.207 Electron/30.0.6 Safari/537.36" etag="lYnq358uT4euXMvZDR42" version="24.6.1" type="device">
  <diagram name="第 1 页" id="Jpncr8CrzfPuUJEIMnNO">
    <mxGraphModel dx="1863" dy="606" grid="1" gridSize="10" guides="1" tooltips="1" connect="1" arrows="1" fold="1" page="1" pageScale="1" pageWidth="827" pageHeight="1169" math="0" shadow="0">
      <root>
        <mxCell id="0" />
        <mxCell id="1" parent="0" />
        <mxCell id="L2jMnY4t_XPsmVAuwPYo-3" value="" style="shape=image;verticalLabelPosition=bottom;labelBackgroundColor=default;verticalAlign=top;aspect=fixed;imageAspect=0;image=https://pic2.zhimg.com/v2-d1b84c9f82e2fe177715729a10c8271d_r.jpg;" parent="1" vertex="1">
          <mxGeometry x="-730" y="40" width="790" height="444.38" as="geometry" />
        </mxCell>
      </root>
    </mxGraphModel>
  </diagram>
</mxfile>
